# xmcd
#
# Track frame offsets:
#	150
#	19034
#	31785
#	41976
#	53157
#	64711
#	76922
#	91425
#	104688
#	119142
#	128930
#	139497
#	153709
#	167452
#	178041
#	189776
#	200790
#	212598
#	227881
#	239021
#
# Disc length: 3320 seconds
#
# Revision: 0
# Processed by: cddbd v1.5.1PL0 Copyright (c) Steve Scherf et al.
# Submitted via: dBpowerAMP V4.0
#
DISCID=260cf614
DTITLE=Hank Snow - Award Winners and You're Easy To Love
DYEAR=1900
DGENRE=Country
TTITLE0=Sunday Mornin' Comin' Down
TTITLE1=I Threw Away The Rose
TTITLE2=Ribbon Of Darkness
TTITLE3=Snowbird
TTITLE4=Just Bidin' My Time
TTITLE5=No One Will Ever Know
TTITLE6=The Seashores Of Old Mexico
TTITLE7=Me And Bobbie McGee
TTITLE8=For The Good Times
TTITLE9=Gypsy Feet
TTITLE10=You're Easy To Love
TTITLE11=My Dreams Tell It Like It Was
TTITLE12=She Even Woke Me To Say Goodbye
TTITLE13=I Just Want You To Know
TTITLE14=Follow Me
TTITLE15=Merry-Go-Round Of Love
TTITLE16=Colorado Country Morning
TTITLE17=I Almost Lost My Mind
TTITLE18=Top Of The Morning
TTITLE19=So Good To Be Back With You
EXTD=Double Album
EXTT0=
EXTT1=
EXTT2=
EXTT3=
EXTT4=
EXTT5=
EXTT6=
EXTT7=
EXTT8=
EXTT9=
EXTT10=
EXTT11=
EXTT12=
EXTT13=
EXTT14=
EXTT15=
EXTT16=
EXTT17=
EXTT18=
EXTT19=
PLAYORDER=
